<?xml version="1.0" standalone="no"?>
<!DOCTYPE svg PUBLIC "-//W3C//DTD SVG 20010904//EN"
 "http://www.w3.org/TR/2001/REC-SVG-20010904/DTD/svg10.dtd">
<svg version="1.0" xmlns="http://www.w3.org/2000/svg"
 width="450.000000pt" height="450.000000pt" viewBox="0 0 450.000000 450.000000"
 preserveAspectRatio="xMidYMid meet">

<g transform="translate(0.000000,450.000000) scale(0.100000,-0.100000)"
fill="#000000" stroke="none">
<path d="M2088 3958 l-168 -51 0 -294 0 -293 345 0 345 0 0 293 0 293 -162 48
c-90 27 -170 50 -178 52 -8 1 -90 -20 -182 -48z m343 -15 l159 -46 0 -44 0
-43 -331 0 -330 0 3 42 3 43 155 47 c85 26 161 47 168 48 7 0 85 -21 173 -47z
m-481 -168 c0 -8 5 -15 10 -15 6 0 10 -67 10 -180 0 -113 -4 -180 -10 -180 -5
0 -10 -7 -10 -15 0 -8 -4 -15 -10 -15 -6 0 -10 77 -10 210 0 133 4 210 10 210
6 0 10 -7 10 -15z m100 5 c0 -5 -18 -10 -40 -10 -22 0 -40 5 -40 10 0 6 18 10
40 10 22 0 40 -4 40 -10z m70 -5 c0 -8 5 -15 10 -15 6 0 10 -67 10 -180 0
-113 -4 -180 -10 -180 -5 0 -10 -7 -10 -15 0 -9 -9 -15 -25 -15 -16 0 -25 6
-25 15 0 8 -4 15 -10 15 -6 0 -10 67 -10 180 0 113 4 180 10 180 6 0 10 7 10
15 0 9 9 15 25 15 16 0 25 -6 25 -15z m100 5 c0 -5 -18 -10 -40 -10 -22 0 -40
5 -40 10 0 6 18 10 40 10 22 0 40 -4 40 -10z m70 -5 c0 -8 5 -15 10 -15 6 0
10 -50 10 -130 l0 -130 -45 0 -45 0 0 130 c0 80 4 130 10 130 6 0 10 7 10 15
0 9 9 15 25 15 16 0 25 -6 25 -15z m100 5 c0 -5 -18 -10 -39 -10 -22 0 -43 5
-46 10 -4 6 12 10 39 10 25 0 46 -4 46 -10z m78 -17 c15 -34 17 -363 2 -363
-5 0 -10 -7 -10 -15 0 -21 -40 -19 -56 3 -17 21 -20 372 -4 372 6 0 10 7 10
15 0 27 44 17 58 -12z m92 17 c0 -5 -20 -10 -45 -10 -25 0 -45 5 -45 10 0 6
20 10 45 10 25 0 45 -4 45 -10z m30 -200 c0 -191 -7 -249 -24 -187 -8 29 -8
345 0 375 17 61 24 3 24 -188z m-550 0 l0 -180 -30 0 -30 0 0 173 c0 96 3 177
7 180 3 4 17 7 30 7 l23 0 0 -180z m165 0 l0 -175 -27 -3 -28 -3 0 181 0 181
28 -3 27 -3 0 -175z m165 0 l0 -180 -25 0 -25 0 0 180 0 180 25 0 25 0 0 -180z
m170 0 l0 -180 -25 0 -25 0 0 180 0 180 25 0 25 0 0 -180z m-282 -153 c2 -35
-1 -57 -8 -57 -5 0 -10 7 -10 15 0 8 -4 15 -10 15 -5 0 -10 21 -10 46 0 38 3
45 18 42 13 -2 18 -15 20 -61z m52 18 c0 -25 -4 -45 -10 -45 -5 0 -10 -7 -10
-15 0 -8 -4 -15 -10 -15 -6 0 -10 27 -10 60 0 53 2 60 20 60 17 0 20 -7 20
-45z m-260 -65 c0 -5 -18 -10 -40 -10 -22 0 -40 5 -40 10 0 6 18 10 40 10 22
0 40 -4 40 -10z m170 0 c0 -5 -18 -10 -40 -10 -22 0 -40 5 -40 10 0 6 18 10
40 10 22 0 40 -4 40 -10z m165 0 c4 -6 -12 -10 -40 -10 -28 0 -44 4 -40 10 3
6 21 10 40 10 19 0 37 -4 40 -10z m175 0 c0 -5 -21 -10 -46 -10 -27 0 -43 4
-39 10 3 6 24 10 46 10 21 0 39 -4 39 -10z m30 -40 c0 -6 -117 -10 -330 -10
-213 0 -330 4 -330 10 0 6 117 10 330 10 213 0 330 -4 330 -10z"/>
<path d="M2226 3924 c-20 -20 -21 -68 -1 -84 22 -18 66 -15 82 6 41 56 -32
127 -81 78z m64 -14 c11 -11 20 -24 20 -29 0 -16 -30 -41 -49 -41 -38 0 -54
45 -25 74 20 21 30 20 54 -4z"/>
<path d="M2682 3928 c-15 -15 -15 -43 -2 -69 17 -30 77 -26 92 6 18 40 -3 75
-45 75 -18 0 -38 -5 -45 -12z m76 -34 c3 -34 -16 -49 -48 -39 -44 14 -28 78
18 73 22 -2 28 -9 30 -34z"/>
<path d="M1695 3905 c-18 -17 -25 -35 -25 -63 0 -52 32 -82 86 -82 53 0 84 31
84 84 0 77 -91 116 -145 61z m118 -17 c24 -28 21 -65 -8 -93 -61 -62 -155 10
-114 86 22 42 89 46 122 7z"/>
<path d="M1507 3832 c-33 -36 -8 -92 40 -92 25 0 53 30 53 57 0 46 -62 69 -93
35z m78 -22 c3 -5 1 -19 -5 -30 -16 -31 -64 -24 -68 9 -7 45 49 61 73 21z"/>
<path d="M2760 3755 c0 -8 -6 -15 -13 -15 -37 0 -62 -71 -35 -98 27 -27 78 -7
78 30 0 26 15 22 28 -7 8 -17 12 -104 12 -260 l0 -235 -24 0 c-42 0 -84 -63
-55 -81 8 -5 103 -9 212 -9 175 0 198 2 204 17 11 28 -19 68 -55 71 l-32 3 0
230 c0 187 3 236 15 259 9 17 20 30 26 30 6 0 7 -4 4 -10 -3 -5 -1 -19 5 -30
21 -39 90 -15 90 31 0 23 -34 59 -55 59 -8 0 -15 7 -15 15 0 13 -28 15 -195
15 -167 0 -195 -2 -195 -15z m380 -5 c0 -6 -67 -10 -180 -10 -113 0 -180 4
-180 10 0 6 67 10 180 10 113 0 180 -4 180 -10z m41 -30 c37 -20 14 -89 -25
-74 -20 8 -21 44 -2 44 8 0 16 -6 19 -12 2 -7 8 -10 12 -6 4 4 2 14 -5 23 -10
12 -46 15 -215 15 -112 0 -210 -3 -219 -6 -9 -3 -16 -13 -16 -21 0 -13 3 -13
15 -3 12 10 19 10 27 2 19 -19 -17 -50 -40 -36 -26 17 -26 50 0 68 19 13 56
16 226 16 121 0 211 -4 223 -10z m-91 -36 c0 -3 -5 -14 -10 -25 -10 -17 -22
-19 -124 -19 -111 0 -113 0 -124 25 l-12 25 135 0 c74 0 135 -3 135 -6z m-20
-287 c0 -123 -2 -226 -4 -228 -2 -2 -52 -3 -110 -1 l-106 3 0 225 0 224 110 0
110 0 0 -223z m80 -266 c5 -11 10 -22 10 -25 0 -3 -90 -6 -200 -6 -115 0 -200
4 -200 9 0 40 6 41 196 41 171 0 184 -1 194 -19z"/>
<path d="M2870 3395 l0 -206 38 3 37 3 0 200 0 200 -37 3 -38 3 0 -206z m60 0
l0 -195 -25 0 -25 0 0 195 0 195 25 0 25 0 0 -195z"/>
<path d="M2970 3395 l0 -206 38 3 37 3 0 200 0 200 -37 3 -38 3 0 -206z m60 0
l0 -195 -25 0 -25 0 0 195 0 195 25 0 25 0 0 -195z"/>
<path d="M1258 3688 c-3 -7 -2 -22 3 -33 15 -38 10 -55 -15 -55 -35 0 -84 -45
-96 -89 -11 -42 0 -93 25 -122 15 -15 15 -20 2 -41 -8 -12 -20 -40 -27 -60
-17 -55 8 -135 55 -177 30 -26 34 -34 25 -50 -5 -11 -7 -27 -4 -36 6 -13 27
-15 163 -13 l156 3 0 35 c0 25 8 43 28 63 58 57 72 139 37 213 l-21 42 21 34
c49 81 1 198 -83 198 -27 0 -29 2 -23 28 18 71 24 67 -115 70 -96 2 -128 -1
-131 -10z m238 -25 c-4 -16 -9 -53 -12 -83 -5 -53 -3 -59 60 -170 36 -63 68
-126 71 -141 10 -46 -13 -107 -56 -149 -34 -33 -39 -42 -30 -59 6 -11 11 -22
11 -25 0 -3 -67 -6 -150 -6 l-149 0 6 30 c4 25 1 34 -21 51 -36 28 -66 90 -66
135 0 25 20 73 66 161 65 122 66 127 61 182 -3 31 -9 66 -13 79 -6 22 -6 22
111 22 l117 0 -6 -27z m-218 -92 c3 -9 0 -11 -7 -6 -22 13 -60 -5 -77 -36 -15
-31 -15 -63 1 -119 7 -24 7 -24 -11 -7 -27 26 -26 117 1 147 35 39 83 50 93
21z m309 -16 c31 -35 38 -84 19 -128 -8 -21 -20 -37 -25 -37 -14 0 -14 1 5 39
32 63 -15 151 -73 136 -24 -6 -32 9 -10 19 22 9 62 -4 84 -29z m-322 -42 c-9
-21 -24 -51 -35 -67 l-19 -30 -12 26 c-22 49 9 108 57 108 24 0 24 0 9 -37z
m297 20 c11 -10 18 -30 18 -52 0 -34 -14 -71 -23 -61 -16 19 -57 100 -57 113
0 22 38 22 62 0z"/>
<path d="M1317 3563 c-11 -19 -19 -78 -9 -68 11 11 27 75 18 75 -2 0 -7 -3 -9
-7z"/>
<path d="M1231 3378 c-28 -51 -51 -102 -51 -113 0 -11 15 9 33 45 18 36 45 86
61 113 15 26 23 47 17 47 -5 0 -33 -42 -60 -92z"/>
<path d="M1658 3693 c75 -2 122 -8 122 -14 0 -6 -5 -30 -11 -55 -12 -45 -11
-46 21 -76 l33 -29 -6 -87 c-7 -97 -36 -213 -73 -285 -29 -59 -30 -65 -2 -94
l21 -23 -96 0 c-58 0 -97 -4 -97 -10 0 -6 38 -10 95 -10 107 0 126 12 86 54
l-21 23 25 45 c38 69 75 226 75 320 0 75 -2 82 -28 106 -28 26 -28 28 -16 76
7 28 11 53 8 58 -3 4 -62 7 -132 6 l-127 -2 123 -3z"/>
<path d="M3198 3593 c56 -2 102 -8 102 -13 0 -5 -46 -11 -102 -13 l-103 -3
118 -2 c65 -1 127 -7 138 -12 37 -20 14 -89 -25 -74 -20 8 -21 44 -2 44 8 0
17 -6 20 -12 3 -7 5 -4 3 7 -2 19 -11 20 -125 23 -79 2 -122 -1 -122 -8 0 -6
32 -10 80 -10 44 0 80 -3 80 -6 0 -3 -5 -14 -10 -25 -9 -16 -23 -19 -83 -21
l-72 -2 70 -5 70 -6 3 -142 3 -143 -30 0 c-16 0 -33 -4 -36 -10 -4 -6 20 -10
64 -10 59 0 72 -3 81 -19 5 -11 10 -22 10 -25 0 -3 -31 -6 -70 -6 -40 0 -70
-4 -70 -10 0 -6 30 -10 70 -10 57 0 72 3 77 17 11 28 -19 68 -55 71 l-32 3 0
145 c0 114 3 152 16 176 l16 32 14 -32 c9 -23 20 -32 37 -32 26 0 57 28 57 51
0 24 -30 59 -51 59 -10 0 -19 7 -19 15 0 13 -18 15 -112 13 l-113 -2 103 -3z"/>
<path d="M1789 3445 c-6 -40 -4 -53 7 -43 3 3 4 23 2 44 l-3 39 -6 -40z"/>
<path d="M966 3438 c-23 -33 -19 -64 10 -87 32 -25 52 -26 82 -5 28 19 30 74
4 97 -27 25 -78 22 -96 -5z m89 -8 c27 -29 10 -74 -28 -78 -36 -4 -57 13 -57
49 0 47 53 65 85 29z"/>
<path d="M3421 3434 c-60 -50 -48 -147 23 -180 75 -36 156 16 156 101 0 93
-107 140 -179 79z m118 1 c88 -45 50 -175 -51 -175 -56 0 -88 34 -88 94 0 37
5 48 31 70 34 29 67 33 108 11z"/>
<path d="M3147 3433 c-4 -3 -7 -60 -7 -125 l0 -119 38 3 37 3 3 109 c2 71 -1
113 -9 122 -12 14 -51 19 -62 7z m53 -123 l0 -110 -25 0 -25 0 0 110 0 110 25
0 25 0 0 -110z"/>
<path d="M3100 3310 c0 -67 4 -110 10 -110 6 0 10 43 10 110 0 67 -4 110 -10
110 -6 0 -10 -43 -10 -110z"/>
<path d="M1776 3355 c-22 -89 -50 -174 -67 -203 -21 -37 -24 -46 -9 -37 29 18
96 214 87 253 -3 12 -6 8 -11 -13z"/>
<path d="M930 3219 c-9 -15 -9 -28 0 -49 11 -25 8 -34 -28 -91 l-40 -63 -66
-1 c-57 0 -69 -4 -103 -31 -135 -108 -70 -313 100 -314 27 0 57 5 69 11 17 9
29 2 93 -60 74 -72 91 -81 113 -59 24 24 11 53 -54 119 -65 66 -66 68 -55 100
17 50 13 91 -15 147 l-26 52 42 65 c35 53 47 65 69 65 32 0 51 16 51 45 0 27
-18 45 -46 45 -13 0 -24 8 -27 20 -7 28 -62 28 -77 -1z m54 5 c9 -3 16 -17 16
-30 0 -21 3 -23 19 -15 13 7 24 6 37 -4 26 -19 7 -51 -30 -48 -23 2 -34 -9
-73 -68 -42 -64 -60 -79 -76 -63 -3 3 14 39 39 79 44 73 52 95 34 95 -11 0
-14 43 -3 53 8 9 17 9 37 1z m-106 -244 c126 -77 79 -281 -69 -297 -133 -14
-228 150 -147 252 51 66 149 86 216 45z m62 -275 c-11 -14 -40 -21 -40 -10 0
15 35 44 44 35 6 -6 4 -15 -4 -25z m127 -119 c-11 -28 -42 -17 -92 34 -48 49
-48 50 -30 70 l19 21 54 -55 c37 -36 53 -59 49 -70z"/>
<path d="M718 2963 c-42 -26 -71 -87 -65 -136 20 -147 219 -172 272 -33 22 58
8 112 -40 155 -30 26 -44 31 -88 31 -31 0 -63 -7 -79 -17z m102 0 c-1 -24 -33
-47 -61 -45 -38 4 -59 -13 -59 -49 0 -34 23 -59 56 -59 14 0 24 -6 24 -15 0
-8 9 -19 21 -25 52 -28 107 26 75 74 -13 20 -14 30 -4 51 14 32 26 32 38 -1
27 -69 0 -136 -65 -165 -90 -40 -175 18 -175 120 0 43 35 96 74 111 27 11 76
12 76 3z m41 -14 c19 -10 19 -11 -3 -50 -21 -38 -21 -41 -5 -50 23 -13 22 -56
-2 -69 -36 -19 -68 11 -56 51 4 11 2 19 -4 19 -6 0 -11 -4 -11 -10 0 -14 -43
-13 -58 2 -32 32 8 80 48 58 17 -9 23 -5 42 25 26 40 23 38 49 24z"/>
<path d="M1960 3168 c0 -46 4 -68 9 -59 5 8 16 11 25 8 23 -9 20 1 -6 24 l-23
20 25 -6 25 -6 -22 17 c-34 25 -30 54 7 54 29 0 30 -1 30 -48 0 -26 5 -53 11
-59 8 -8 -2 -14 -33 -24 l-43 -14 -3 -114 c-2 -87 1 -117 12 -130 10 -11 16
-56 21 -148 l7 -133 34 0 34 0 0 135 c0 178 18 180 22 3 l3 -133 35 0 35 0 7
169 c4 92 9 170 12 173 2 2 32 -10 66 -27 58 -29 64 -30 79 -15 15 15 15 17
-2 30 -18 13 -17 17 17 96 20 45 34 85 31 87 -7 7 -7 7 -45 -80 -18 -43 -36
-78 -41 -78 -5 0 -24 7 -43 17 -34 16 -35 18 -38 82 l-3 66 -42 13 c-37 12
-41 16 -33 32 6 10 10 37 10 59 l0 41 245 0 245 0 0 -225 0 -225 -54 0 c-29 0
-73 7 -96 15 -30 11 -78 14 -164 13 l-121 -2 135 -6 c147 -8 140 -7 140 -17 0
-5 -61 -7 -135 -5 -90 2 -135 0 -135 -7 0 -8 74 -11 225 -11 l225 0 0 245 0
245 -345 0 -345 0 0 -72z m170 14 c0 -52 -29 -80 -65 -64 -21 10 -25 18 -25
57 l0 45 45 0 45 0 0 -38z m20 -106 l45 -13 3 -65 3 -65 59 -28 c33 -16 60
-32 60 -37 0 -13 -10 -10 -77 24 -61 30 -63 33 -63 69 0 21 -4 41 -10 44 -6 4
-11 -75 -12 -217 -3 -223 -3 -223 -25 -226 -23 -3 -23 -3 -23 132 l0 136 -25
0 -25 0 0 -136 c0 -135 0 -135 -22 -132 -23 3 -23 3 -26 226 -1 136 -6 222
-12 222 -6 0 -10 -37 -10 -87 0 -60 -3 -84 -10 -77 -7 7 -10 52 -8 115 l3 103
40 12 c53 16 81 16 135 0z"/>
<path d="M3519 3150 c-10 -28 -15 -30 -60 -30 -27 0 -49 -4 -49 -10 0 -5 23
-10 50 -10 l50 0 0 -56 c0 -53 -1 -56 -33 -69 -19 -8 -68 -17 -110 -21 l-77
-7 0 32 c0 17 -4 31 -10 31 -5 0 -10 -13 -10 -29 0 -23 -6 -31 -31 -40 -25 -9
-30 -15 -27 -38 4 -38 36 -51 179 -76 134 -23 129 -17 129 -133 l0 -71 -50 -7
c-86 -12 -80 -55 9 -64 41 -4 50 -8 53 -25 4 -31 27 -32 38 -3 7 20 16 26 39
26 42 0 81 17 81 35 0 18 -39 35 -81 35 -28 0 -29 2 -29 43 0 23 3 65 6 93 l6
51 118 20 c142 25 174 38 178 76 3 23 -2 29 -27 38 -25 9 -31 17 -31 40 0 16
-4 29 -10 29 -5 0 -10 -14 -10 -31 l0 -32 -77 7 c-42 4 -91 13 -110 21 -32 13
-33 16 -33 69 l0 56 50 0 c28 0 50 5 50 10 0 6 -22 10 -49 10 -45 0 -50 2 -60
30 -7 21 -17 30 -31 30 -14 0 -24 -9 -31 -30z m49 -5 c11 -23 10 -25 -13 -25
-26 0 -29 7 -19 34 9 23 19 20 32 -9z m10 -122 c-3 -75 -4 -77 -28 -77 -24 0
-25 2 -28 77 l-3 77 31 0 31 0 -3 -77z m-68 -109 l0 -56 -64 7 c-64 6 -156 26
-188 39 -11 5 -18 2 -21 -11 -4 -17 -4 -17 -12 0 -4 10 -4 22 1 27 5 5 60 13
123 20 63 6 121 15 130 20 28 16 31 11 31 -46z m160 35 c25 -4 80 -11 123 -14
79 -7 104 -22 78 -48 -8 -8 -11 -6 -11 7 0 13 -5 16 -17 11 -33 -14 -125 -34
-189 -40 l-64 -7 0 57 c0 51 2 56 18 50 9 -4 37 -11 62 -16z m-100 -44 c0 -18
-5 -25 -20 -25 -15 0 -20 7 -20 25 0 18 5 25 20 25 15 0 20 -7 20 -25z m-161
-50 c89 -14 110 -20 100 -29 -4 -4 -214 30 -236 38 -27 11 -13 25 15 16 15 -5
69 -16 121 -25z m425 15 c-10 -9 -236 -51 -243 -44 -10 9 12 16 105 30 54 9
107 20 118 24 24 9 34 4 20 -10z m-264 -45 c0 -38 -3 -45 -20 -45 -17 0 -20 7
-20 45 0 38 3 45 20 45 17 0 20 -7 20 -45z m-4 -172 c-4 -65 -9 -119 -12 -122
-10 -10 -13 11 -20 122 l-7 117 23 0 23 0 -7 -117z m-46 -52 c0 -5 3 -16 6
-25 7 -19 -14 -21 -70 -5 -40 11 -39 24 4 32 44 8 60 7 60 -2z m153 -8 c15 -9
-7 -21 -50 -28 -42 -7 -43 -6 -43 20 0 26 1 27 43 20 23 -4 46 -10 50 -12z"/>
<path d="M2160 3141 c0 -17 5 -33 11 -37 11 -6 69 42 69 58 0 4 -18 8 -40 8
-38 0 -40 -2 -40 -29z m50 10 c0 -5 -7 -14 -15 -21 -13 -10 -15 -9 -15 9 0 12
6 21 15 21 8 0 15 -4 15 -9z"/>
<path d="M2295 3133 c-65 -33 -68 -36 -50 -50 11 -7 29 -16 40 -19 25 -6 82
21 65 31 -6 4 -20 -1 -30 -10 -17 -15 -21 -16 -41 -2 -21 15 -20 16 40 46 70
36 160 42 212 15 29 -14 30 -17 15 -33 -9 -10 -16 -34 -16 -54 0 -43 -15 -55
-40 -32 -18 17 -20 16 -31 -9 -15 -32 -23 -33 -37 -1 -6 14 -16 25 -22 25 -6
0 -1 -18 10 -40 18 -36 40 -53 40 -32 0 5 6 17 14 27 12 16 16 17 30 6 25 -21
56 12 56 59 0 21 7 43 15 50 22 18 19 24 -20 43 -24 11 -60 17 -108 17 -62 -1
-81 -6 -142 -37z"/>
<path d="M2245 3044 c30 -22 63 -28 80 -14 9 7 13 15 10 18 -2 3 -11 -1 -19
-7 -11 -10 -21 -9 -45 3 -38 20 -52 20 -26 0z"/>
<path d="M2716 2994 c-22 -21 -20 -50 4 -74 24 -24 38 -25 68 -4 24 16 28 44
12 75 -13 23 -62 26 -84 3z m68 -10 c19 -19 20 -25 3 -48 -19 -26 -61 -18 -65
12 -7 44 32 67 62 36z"/>
<path d="M2230 2972 c0 -5 11 -14 25 -20 29 -13 33 -5 8 14 -21 15 -33 18 -33
6z"/>
<path d="M1220 2950 c-52 -52 12 -120 81 -85 18 10 35 13 40 8 6 -6 -3 -50
-21 -109 -68 -219 -56 -319 44 -379 22 -14 34 -25 25 -25 -23 0 -63 -46 -56
-64 6 -14 36 -16 216 -16 125 0 212 4 216 10 10 15 -25 60 -53 67 -25 6 -25 6
10 24 109 56 123 152 57 376 -18 62 -30 115 -26 119 3 4 23 -1 44 -11 33 -16
40 -16 63 -4 17 10 26 25 28 46 5 47 -31 67 -102 58 -74 -9 -106 -35 -106 -85
0 -21 -4 -42 -10 -45 -6 -4 -10 8 -10 29 0 20 -4 36 -10 36 -5 0 -10 -16 -10
-35 0 -31 -3 -35 -25 -35 -23 0 -25 3 -25 50 0 28 -4 50 -10 50 -5 0 -10 -23
-10 -51 0 -47 -2 -50 -22 -47 -19 3 -24 11 -29 53 l-5 50 -5 -50 c-4 -45 -6
-50 -29 -50 -21 0 -26 6 -31 35 l-6 35 -2 -32 c-2 -48 -21 -52 -21 -4 0 49
-22 75 -77 90 -58 17 -101 13 -123 -9z m149 -15 c16 -8 31 -22 35 -30 3 -9 -3
-62 -15 -118 -40 -193 -27 -276 51 -321 48 -28 160 -28 214 0 78 40 93 119 56
299 -25 122 -25 137 1 161 29 26 146 28 163 2 8 -13 8 -23 0 -35 -13 -21 -62
-29 -77 -14 -6 6 -21 11 -34 11 -32 0 -30 -34 8 -156 39 -125 44 -222 13 -274
-42 -73 -138 -107 -275 -97 -105 7 -166 37 -196 97 -32 63 -29 123 13 272 40
140 39 164 -4 154 -67 -17 -78 -17 -91 -2 -8 9 -11 26 -7 41 6 23 11 25 62 25
30 0 68 -7 83 -15z m71 -280 c0 -105 -4 -165 -10 -165 -23 0 -50 65 -50 122 0
78 29 208 47 208 10 0 13 -33 13 -165z m70 -15 c0 -186 -1 -191 -41 -170 -18
10 -19 23 -19 180 l0 170 30 0 30 0 0 -180z m60 0 l0 -180 -25 0 -25 0 0 180
0 180 25 0 25 0 0 -180z m70 6 c0 -179 -2 -186 -41 -186 -5 0 -9 77 -9 180 l0
180 25 0 25 0 0 -174z m62 88 c22 -105 21 -150 -2 -201 -33 -75 -40 -55 -40
123 0 128 3 165 13 162 6 -3 19 -40 29 -84z m25 -406 c13 -12 23 -25 23 -30 0
-10 -394 -11 -403 -1 -4 3 3 17 15 30 21 22 27 23 182 23 150 0 161 -1 183
-22z"/>
<path d="M2528 2914 c-34 -18 -40 -64 -9 -64 11 0 27 -8 37 -17 15 -16 17 -16
31 3 21 29 27 62 13 79 -16 19 -37 18 -72 -1z m61 -8 c9 -10 9 -20 0 -40 -12
-26 -29 -35 -29 -16 0 5 -11 12 -25 16 -32 8 -31 15 3 36 34 21 37 21 51 4z"/>
<path d="M1045 2900 c-41 -45 18 -110 70 -76 27 18 34 63 13 84 -18 18 -63 14
-83 -8z m69 -6 c19 -19 20 -25 3 -49 -20 -26 -67 -13 -67 18 0 43 35 60 64 31z"/>
<path d="M2846 2888 c-2 -7 -7 -29 -10 -47 -4 -19 -11 -52 -17 -73 l-10 -38
-69 0 -70 0 0 -35 0 -35 -138 0 c-94 0 -142 -4 -150 -12 -9 -9 -12 -73 -12
-225 l0 -213 345 0 345 0 -2 343 -3 342 -103 3 c-77 2 -103 -1 -106 -10z m194
-18 c0 -6 -37 -10 -90 -10 -53 0 -90 4 -90 10 0 6 37 10 90 10 53 0 90 -4 90
-10z m-160 -86 c0 -52 -1 -54 -26 -54 -25 0 -26 2 -19 36 18 97 45 108 45 18z
m130 6 c0 -68 -17 -82 -22 -19 -2 27 -9 46 -20 53 -29 18 -53 -4 -56 -53 -5
-63 -22 -49 -22 19 l0 60 60 0 60 0 0 -60z m30 0 c0 -33 -4 -60 -9 -60 -9 0
-14 97 -5 111 11 18 14 7 14 -51z m-62 -22 c3 -36 2 -38 -27 -38 -28 0 -31 3
-31 33 0 40 7 49 35 45 15 -2 21 -12 23 -40z m62 -68 c0 -6 -65 -10 -175 -10
-110 0 -175 4 -175 10 0 6 65 10 175 10 110 0 175 -4 175 -10z m-330 -86 c0
-52 -1 -54 -26 -54 -25 0 -26 2 -19 36 18 97 45 108 45 18z m130 6 c0 -68 -17
-82 -22 -19 -3 49 -27 71 -55 53 -12 -7 -19 -26 -21 -53 -5 -63 -22 -49 -22
19 l0 60 60 0 60 0 0 -60z m40 -6 c0 -30 -4 -54 -10 -54 -6 0 -10 27 -10 61 0
37 4 58 10 54 6 -3 10 -31 10 -61z m130 6 c0 -68 -17 -82 -22 -19 -3 49 -27
71 -55 53 -12 -7 -19 -26 -21 -53 -5 -63 -22 -49 -22 19 l0 60 60 0 60 0 0
-60z m30 0 c0 -33 -4 -60 -10 -60 -11 0 -14 103 -3 113 12 12 13 8 13 -53z
m-380 20 c0 -6 -52 -10 -136 -10 -87 0 -133 4 -129 10 4 6 60 10 136 10 79 0
129 -4 129 -10z m150 -46 c0 -31 -3 -34 -30 -34 -27 0 -30 3 -30 29 0 16 7 37
16 46 23 22 44 2 44 -41z m158 44 c7 -7 12 -27 12 -45 0 -30 -3 -33 -30 -33
-27 0 -30 3 -30 33 0 30 14 57 30 57 3 0 11 -5 18 -12z m-318 -40 c0 -28 -18
-37 -80 -40 -61 -3 -65 -5 -68 -28 -8 -69 -8 -70 -67 -70 l-55 0 0 75 0 75
135 0 c101 0 135 -3 135 -12z m390 -68 c0 -6 -93 -10 -260 -10 -167 0 -260 4
-260 10 0 6 93 10 260 10 167 0 260 -4 260 -10z m-500 -80 c0 -58 -1 -60 -26
-60 -25 0 -26 2 -19 36 18 99 45 113 45 24z m130 0 c0 -68 -17 -82 -22 -19 -6
80 -70 80 -76 0 -5 -63 -22 -49 -22 19 l0 60 60 0 60 0 0 -60z m40 0 c0 -33
-4 -60 -10 -60 -6 0 -10 27 -10 60 0 33 4 60 10 60 6 0 10 -27 10 -60z m130 0
c0 -68 -17 -82 -22 -19 -6 80 -70 80 -76 0 -5 -63 -22 -49 -22 19 l0 60 60 0
60 0 0 -60z m40 -6 c0 -30 -4 -54 -10 -54 -6 0 -10 27 -10 61 0 37 4 58 10 54
6 -3 10 -31 10 -61z m130 6 c0 -68 -17 -82 -22 -19 -6 80 -70 80 -76 0 -5 -63
-22 -49 -22 19 l0 60 60 0 60 0 0 -60z m30 0 c0 -33 -4 -60 -10 -60 -6 0 -10
27 -10 60 0 33 4 60 10 60 6 0 10 -27 10 -60z m-412 18 c7 -7 12 -27 12 -45 0
-29 -3 -33 -25 -33 -22 0 -25 4 -25 38 0 51 13 65 38 40z m170 0 c7 -7 12 -27
12 -46 0 -30 -2 -33 -27 -30 -22 2 -29 9 -31 31 -3 26 12 57 27 57 4 0 12 -5
19 -12z m170 0 c7 -7 12 -27 12 -45 0 -30 -3 -33 -30 -33 -27 0 -30 3 -30 33
0 30 14 57 30 57 3 0 11 -5 18 -12z m-488 -37 c0 -31 -14 -41 -56 -41 -40 0
-44 2 -44 25 0 23 3 25 50 25 28 0 50 -4 50 -9z m560 -61 c0 -6 -117 -10 -331
-10 -217 0 -328 3 -324 10 4 6 125 10 331 10 209 0 324 -4 324 -10z m-540 -92
c0 -68 -16 -70 -22 -3 -2 33 -7 41 -26 43 -34 5 -52 -15 -52 -59 0 -22 -4 -39
-10 -39 -6 0 -10 27 -10 60 l0 60 60 0 60 0 0 -62z m40 2 c0 -33 -4 -60 -10
-60 -6 0 -10 27 -10 60 0 33 4 60 10 60 6 0 10 -27 10 -60z m130 0 c0 -71 -18
-81 -22 -12 -3 40 -6 47 -26 50 -34 5 -52 -15 -52 -59 0 -22 -4 -39 -10 -39
-6 0 -10 27 -10 60 l0 60 60 0 60 0 0 -60z m40 6 c0 -30 -4 -58 -10 -61 -6 -4
-10 17 -10 54 0 34 4 61 10 61 6 0 10 -24 10 -54z m130 -6 c0 -68 -17 -82 -22
-19 -6 80 -70 80 -76 0 -5 -63 -22 -49 -22 19 l0 60 60 0 60 0 0 -60z m40 6
c0 -30 -4 -58 -10 -61 -6 -4 -10 17 -10 54 0 34 4 61 10 61 6 0 10 -24 10 -54z
m130 -6 c0 -68 -17 -82 -22 -19 -6 80 -70 80 -76 0 -5 -63 -22 -49 -22 19 l0
60 60 0 60 0 0 -60z m30 -1 c0 -37 -4 -58 -10 -54 -18 11 -12 115 7 115 2 0 3
-27 3 -61z m-586 25 c11 -4 16 -19 16 -45 0 -35 -3 -39 -25 -39 -22 0 -25 4
-25 38 0 49 6 57 34 46z m174 -6 c7 -7 12 -27 12 -45 0 -29 -3 -33 -25 -33
-22 0 -25 4 -25 38 0 51 13 65 38 40z m170 0 c7 -7 12 -27 12 -46 0 -30 -2
-33 -27 -30 -22 2 -29 9 -31 31 -3 26 12 57 27 57 4 0 12 -5 19 -12z m170 0
c7 -7 12 -27 12 -45 0 -30 -3 -33 -30 -33 -27 0 -30 3 -30 33 0 30 14 57 30
57 3 0 11 -5 18 -12z"/>
<path d="M1962 2780 c0 -19 2 -27 5 -17 2 9 2 25 0 35 -3 9 -5 1 -5 -18z"/>
<path d="M3862 2784 c-41 -28 -19 -94 32 -94 28 0 56 29 56 58 0 20 -33 52
-55 52 -6 0 -21 -7 -33 -16z m63 -38 c0 -17 -7 -33 -18 -40 -15 -9 -22 -7 -37
12 -26 32 -11 65 28 60 22 -2 27 -8 27 -32z"/>
<path d="M3125 2725 c-14 -13 -25 -33 -25 -45 0 -24 42 -70 65 -70 13 0 15
-27 15 -205 l0 -205 -25 -6 c-30 -7 -55 -39 -55 -69 0 -50 80 -84 115 -49 15
15 17 15 34 0 39 -35 111 -5 111 47 0 31 -25 64 -55 71 l-25 6 0 205 c0 167 3
205 14 205 27 0 66 41 66 70 0 19 -9 36 -26 49 -32 25 -52 26 -82 5 -20 -14
-24 -14 -44 0 -32 22 -55 20 -83 -9z m95 -30 c12 -26 15 -27 18 -10 10 51 70
63 98 20 15 -23 15 -27 0 -50 -16 -24 -26 -29 -52 -26 -17 2 -28 -196 -19
-335 7 -111 8 -114 31 -114 14 0 30 -10 40 -25 33 -50 -20 -104 -71 -71 -14 9
-25 23 -25 31 0 8 -4 15 -10 15 -5 0 -10 -5 -10 -12 0 -18 -31 -48 -50 -48
-27 0 -52 35 -48 67 2 22 10 30 35 37 19 6 34 18 37 30 8 28 7 375 0 403 -4
13 -10 20 -16 17 -18 -11 -58 26 -58 54 0 37 18 54 55 50 22 -2 34 -11 45 -33z"/>
<path d="M567 2620 c-50 -39 -42 -117 15 -146 89 -46 170 66 99 137 -35 35
-77 38 -114 9z m106 -18 c26 -23 23 -87 -5 -106 -53 -37 -118 -5 -118 57 0 66
71 95 123 49z"/>
<path d="M3824 2566 c-28 -28 -34 -41 -34 -77 1 -123 163 -152 210 -39 29 70
-29 150 -108 150 -25 0 -43 -9 -68 -34z m111 10 c39 -17 55 -42 55 -89 0 -68
-67 -113 -131 -87 -33 14 -59 55 -59 93 0 40 52 93 93 96 4 1 23 -5 42 -13z"/>
<path d="M790 2492 c-34 -19 -43 -32 -168 -254 -18 -32 -28 -58 -22 -58 5 0
21 21 34 48 44 85 45 86 94 67 49 -20 47 -31 -8 -40 -34 -6 -44 -13 -60 -45
-10 -21 -24 -66 -30 -101 -12 -79 -12 -79 0 -79 6 0 10 17 10 38 0 52 26 135
47 154 10 9 42 21 71 28 28 6 52 16 52 20 0 4 -26 18 -57 31 -32 12 -60 24
-61 25 -2 1 15 34 37 72 35 61 47 73 86 87 54 21 165 17 215 -9 42 -20 51 -14
14 10 -42 28 -207 32 -254 6z"/>
<path d="M1161 2499 c-24 -5 -45 -10 -46 -11 -2 -2 -87 -97 -190 -213 -141
-159 -192 -209 -207 -207 -30 3 -51 -17 -37 -35 10 -11 4 -22 -26 -53 -22 -22
-44 -40 -50 -40 -19 0 -45 -35 -45 -58 0 -25 33 -62 55 -62 9 0 25 10 36 23
10 12 38 43 61 70 33 38 43 45 55 35 20 -16 52 15 35 34 -9 11 34 54 207 207
205 181 219 197 225 235 4 23 9 51 13 64 6 25 -7 27 -86 11z m57 -70 c-12 -42
-29 -60 -203 -214 -104 -93 -200 -177 -212 -188 -13 -11 -26 -17 -30 -13 -4 4
46 59 110 124 64 65 117 122 117 127 0 5 -56 -46 -124 -114 -68 -68 -126 -119
-129 -114 -3 5 80 105 185 223 188 212 192 215 242 225 59 12 61 10 44 -56z
m-465 -419 c22 -23 36 -44 33 -47 -4 -4 -28 14 -54 40 -26 26 -40 47 -33 47 8
0 32 -18 54 -40z m-38 -47 c4 -14 2 -23 -4 -23 -6 0 -11 3 -11 8 0 4 -3 18 -6
32 -8 31 11 16 21 -17z m-29 -18 c9 -37 -2 -41 -14 -6 -7 18 -7 31 -2 31 5 0
12 -11 16 -25z m-24 -17 c4 -65 -15 -94 -55 -84 -48 12 -42 62 11 89 38 21 42
20 44 -5z"/>
<path d="M601 1896 c-7 -8 -9 -21 -5 -27 5 -9 10 -5 16 11 10 28 5 36 -11 16z"/>
<path d="M1978 2408 c-3 -49 -5 -53 -30 -56 -20 -2 -28 -9 -28 -22 0 -10 -7
-25 -15 -34 -8 -8 -18 -28 -21 -45 -4 -16 -12 -32 -20 -35 -8 -3 -14 -14 -14
-25 0 -11 -7 -26 -15 -35 -8 -8 -15 -21 -15 -28 0 -7 -9 -26 -20 -43 -11 -16
-20 -36 -20 -44 0 -8 -7 -19 -15 -25 -9 -6 -18 -34 -22 -63 l-6 -53 347 0 346
0 0 23 c0 32 -20 97 -29 97 -5 0 -12 12 -15 26 -4 15 -14 33 -21 41 -8 8 -15
23 -15 32 0 10 -7 24 -15 31 -8 7 -15 21 -15 31 0 9 -6 24 -14 31 -7 8 -17 25
-21 38 -4 14 -13 32 -20 40 -7 8 -15 24 -17 35 -2 11 -14 22 -28 25 -22 5 -25
12 -28 58 l-3 52 -104 0 -104 0 -3 -52z m202 22 c0 -6 -38 -10 -95 -10 -57 0
-95 4 -95 10 0 6 38 10 95 10 57 0 95 -4 95 -10z m-2 -47 l-3 -28 -92 -3 -93
-3 0 31 0 30 96 0 95 0 -3 -27z m-170 -65 c-2 -19 -10 -24 -40 -26 -32 -3 -38
0 -38 16 0 26 8 32 47 32 30 0 34 -3 31 -22z m137 0 c10 -43 65 -343 65 -355
0 -10 -32 -13 -128 -13 l-129 0 34 183 c19 100 36 188 38 195 3 7 24 12 59 12
49 0 56 -3 61 -22z m89 6 c11 -29 6 -34 -34 -34 -36 0 -40 3 -40 25 0 22 4 25
34 25 22 0 36 -6 40 -16z m-238 -70 c-3 -9 -6 -20 -6 -25 0 -5 -23 -9 -51 -9
-43 0 -50 3 -45 16 3 9 6 20 6 25 0 5 23 9 51 9 43 0 50 -3 45 -16z m277 -9
c4 -25 3 -26 -47 -23 -44 3 -51 6 -54 26 -3 20 0 22 46 22 45 0 50 -2 55 -25z
m-293 -65 l0 -30 -61 0 c-57 0 -60 1 -57 23 3 19 11 23 58 28 30 3 56 6 58 7
1 1 2 -11 2 -28z m330 -17 c0 -9 -17 -13 -60 -13 -33 0 -60 4 -60 9 0 5 -3 16
-6 25 -5 12 5 15 48 18 53 3 78 -9 78 -39z m-342 -50 c-3 -27 -5 -28 -67 -31
-71 -3 -83 3 -70 36 7 20 15 22 74 22 l66 0 -3 -27z m366 11 c15 -40 9 -45
-61 -42 -66 3 -68 4 -71 31 -3 27 -3 27 61 27 50 0 66 -4 71 -16z m-374 -63
c0 -35 -13 -41 -92 -41 -69 0 -79 2 -74 16 3 9 6 20 6 25 0 5 36 9 80 9 44 0
80 -4 80 -9z m412 -16 l5 -25 -83 0 c-83 0 -84 0 -84 25 0 25 1 25 79 25 76 0
79 -1 83 -25z m-430 -70 c-4 -24 -6 -25 -93 -25 -80 0 -89 2 -89 18 0 29 8 32
100 32 l87 0 -5 -25z m462 9 c12 -31 5 -34 -83 -34 -89 0 -101 5 -101 41 0 5
40 9 89 9 72 0 90 -3 95 -16z m-156 -61 c-93 -2 -243 -2 -335 0 -93 1 -17 3
167 3 184 0 260 -2 168 -3z"/>
<path d="M3508 2413 c-180 -3 -188 -4 -188 -23 0 -11 7 -20 15 -20 12 0 15
-14 15 -64 0 -59 3 -68 36 -107 86 -103 86 -155 0 -258 -33 -39 -36 -48 -36
-107 0 -50 -3 -64 -15 -64 -8 0 -15 -9 -15 -20 0 -19 7 -20 194 -20 189 0 194
1 189 20 -3 11 -12 20 -19 20 -11 0 -14 16 -14 66 0 62 -2 68 -39 112 -44 52
-61 89 -61 131 0 29 43 104 78 135 19 16 22 30 22 88 0 54 3 68 15 68 9 0 15
9 15 25 0 14 -1 24 -2 23 -2 -2 -87 -4 -190 -5z m182 -23 c0 -6 -67 -10 -180
-10 -113 0 -180 4 -180 10 0 6 67 10 180 10 113 0 180 -4 180 -10z m-32 -81
c3 -52 0 -59 -33 -99 -91 -109 -91 -171 0 -280 33 -40 36 -47 33 -99 l-3 -56
-142 -3 -143 -3 0 69 c0 58 3 72 21 88 29 26 64 83 73 117 10 43 -10 100 -54
150 -38 43 -40 48 -40 111 l0 67 143 -3 142 -3 3 -56z m32 -559 c0 -6 -67 -10
-180 -10 -113 0 -180 4 -180 10 0 6 67 10 180 10 113 0 180 -4 180 -10z"/>
<path d="M3414 2246 c-3 -8 9 -36 26 -61 63 -92 61 -150 -10 -243 -36 -48 -41
-59 -38 -100 l3 -47 109 -3 c71 -2 113 1 122 9 27 22 16 72 -30 135 -80 108
-79 158 5 275 7 9 9 24 6 33 -9 22 -185 24 -193 2z m180 -4 c3 -4 -11 -31 -31
-59 -61 -88 -56 -156 21 -256 25 -33 36 -57 36 -82 l0 -35 -110 0 -110 0 0 36
c0 26 9 47 35 78 82 100 85 182 11 279 -14 19 -23 37 -19 40 9 10 161 9 167
-1z"/>
<path d="M506 2354 c-34 -33 -8 -84 43 -84 34 0 51 17 51 50 0 14 -5 31 -12
38 -17 17 -64 15 -82 -4z m74 -14 c22 -40 -26 -80 -58 -48 -25 25 -6 68 30 68
9 0 22 -9 28 -20z"/>
<path d="M3692 2308 c1 -37 2 -38 5 -10 4 28 8 32 33 32 16 0 47 -7 69 -16 30
-12 38 -20 33 -32 -5 -15 -3 -15 11 -4 14 12 22 7 62 -33 40 -40 45 -48 33
-62 -11 -14 -11 -16 4 -11 12 5 20 -3 32 -33 9 -22 16 -53 16 -69 0 -25 -4
-29 -32 -33 l-33 -4 33 -1 c29 -2 32 -5 32 -32 0 -46 -27 -103 -45 -96 -17 6
-21 -9 -5 -19 13 -8 -32 -67 -65 -85 -23 -12 -28 -12 -37 0 -7 12 -9 10 -5 -7
5 -20 -2 -25 -56 -42 -48 -15 -55 -19 -32 -20 75 -2 177 71 226 161 30 57 33
71 33 143 0 64 -5 90 -24 130 -47 96 -139 164 -242 179 l-48 7 2 -43z"/>
<path d="M1093 2215 c-28 -55 -29 -90 -2 -134 11 -18 18 -35 16 -38 -8 -7 -90
18 -123 38 -31 19 -64 17 -64 -3 0 -6 7 -7 16 -4 8 3 33 -4 56 -15 22 -11 65
-23 95 -26 l54 -6 -30 48 c-37 59 -38 78 -6 130 26 42 30 55 18 55 -5 0 -18
-21 -30 -45z"/>
<path d="M1582 2218 c-8 -8 -10 -38 -5 -100 5 -78 4 -88 -11 -88 -10 0 -16 -8
-16 -25 0 -16 6 -25 15 -25 19 0 19 6 -1 -319 l-15 -263 35 -54 c20 -30 38
-54 41 -54 3 0 21 24 40 53 l35 53 -15 253 c-19 319 -19 331 0 331 9 0 15 9
15 25 0 17 -6 25 -16 25 -15 0 -16 10 -11 88 7 99 2 112 -48 112 -17 0 -36 -5
-43 -12z m78 -18 c7 -14 7 -31 -2 -59 l-12 -39 -28 19 c-33 24 -43 51 -28 79
14 26 56 26 70 0z m-10 -122 c0 -12 -12 -9 -32 6 -26 19 -22 27 7 14 14 -6 25
-15 25 -20z m-14 -23 c10 -8 14 -15 8 -15 -5 0 -19 7 -30 15 -10 8 -14 15 -8
15 5 0 19 -7 30 -15z m49 -55 c-3 -5 -30 -10 -60 -10 -30 0 -57 5 -60 10 -4 6
18 10 60 10 42 0 64 -4 60 -10z m-63 -197 l3 -178 2 178 c3 171 14 227 26 130
3 -27 12 -156 18 -288 l13 -240 -28 -48 c-15 -26 -29 -47 -31 -47 -2 0 -16 21
-32 48 l-30 47 18 285 c9 157 18 286 18 288 1 1 6 2 11 2 6 0 11 -67 12 -177z"/>
<path d="M1627 2181 c3 -12 10 -21 15 -21 13 0 6 32 -9 37 -7 3 -9 -3 -6 -16z"/>
<path d="M1244 2161 c-20 -12 -37 -34 -44 -55 -33 -101 75 -183 166 -127 91
56 47 201 -61 201 -16 0 -44 -9 -61 -19z m105 -5 c101 -53 36 -212 -73 -176
-82 27 -89 135 -11 178 27 15 51 15 84 -2z"/>
<path d="M3772 2127 c-60 -61 -87 -65 -130 -24 -40 38 -52 33 -15 -5 18 -19
33 -46 35 -63 2 -23 9 -31 26 -33 29 -4 55 16 49 39 -3 11 14 36 49 70 30 29
54 57 54 61 0 18 -18 5 -68 -45z m-54 -90 c4 -20 -25 -34 -40 -19 -15 15 -1
44 19 40 10 -2 19 -11 21 -21z"/>
<path d="M2597 2134 c-14 -14 -6 -42 13 -47 17 -4 20 -14 20 -66 0 -56 3 -66
39 -111 75 -94 75 -145 1 -238 -35 -43 -39 -55 -42 -113 -2 -49 -7 -64 -18
-64 -8 0 -16 -10 -18 -22 l-3 -23 195 0 c185 0 196 1 196 19 0 10 -9 21 -20
24 -17 4 -20 14 -20 67 0 58 -3 66 -44 121 -24 32 -47 72 -51 88 -8 37 14 91
60 147 32 38 35 48 35 104 0 54 3 63 21 67 14 4 19 12 17 27 -3 20 -8 21 -189
24 -102 1 -188 -1 -192 -4z m363 -24 c0 -6 -65 -10 -175 -10 -110 0 -175 4
-175 10 0 6 65 10 175 10 110 0 175 -4 175 -10z m-30 -81 c0 -54 -4 -65 -34
-102 -88 -109 -87 -166 1 -274 31 -38 34 -46 31 -100 l-3 -58 -142 -3 -143 -3
0 62 c0 54 4 65 34 102 87 108 87 173 0 275 -31 36 -34 46 -34 101 l0 61 145
0 145 0 0 -61z m30 -559 c0 -6 -65 -10 -175 -10 -110 0 -175 4 -175 10 0 6 65
10 175 10 110 0 175 -4 175 -10z"/>
<path d="M2685 1970 c-4 -6 10 -35 30 -65 64 -93 57 -168 -26 -263 -23 -26
-29 -42 -29 -77 0 -55 6 -57 145 -53 l100 3 3 46 c2 38 -2 51 -29 85 -86 108
-90 182 -15 272 45 52 32 62 -78 62 -55 0 -98 -4 -101 -10z m185 -9 c0 -5 -16
-32 -35 -61 -57 -84 -48 -168 29 -258 26 -32 36 -53 36 -78 l0 -35 -112 3
-113 3 -3 31 c-2 23 6 41 33 74 45 54 62 87 66 125 5 60 -2 84 -36 135 -19 29
-35 56 -35 61 0 5 38 9 85 9 47 0 85 -4 85 -9z"/>
<path d="M3020 1635 l0 -345 90 0 90 0 0 345 0 345 -90 0 -90 0 0 -345z m168
303 c-3 -21 -9 -23 -80 -26 -78 -3 -78 -3 -78 23 0 25 1 25 81 25 78 0 80 -1
77 -22z m-3 -303 l0 -260 -77 -3 -78 -3 0 266 0 266 78 -3 77 -3 0 -260z m0
-305 c0 -24 -2 -25 -77 -28 -76 -3 -78 -2 -78 21 0 35 7 38 85 35 67 -3 70 -4
70 -28z"/>
<path d="M3083 1833 c9 -2 17 -8 17 -13 0 -5 -8 -11 -17 -13 -11 -3 -7 -5 10
-6 18 -1 27 4 27 15 0 8 5 12 10 9 6 -4 8 -11 5 -16 -4 -5 -1 -9 4 -9 6 0 11
9 11 20 0 17 -6 20 -42 19 -24 -1 -35 -3 -25 -6z"/>
<path d="M3070 1755 c0 -23 4 -25 43 -25 27 0 37 3 28 9 -9 6 -10 11 -2 15 6
4 11 12 11 18 0 7 -5 6 -14 -1 -10 -8 -16 -9 -21 -1 -3 5 -15 10 -26 10 -14 0
-19 -7 -19 -25z m30 -5 c0 -5 -4 -10 -10 -10 -5 0 -10 5 -10 10 0 6 5 10 10
10 6 0 10 -4 10 -10z"/>
<path d="M3070 1685 c0 -22 4 -25 40 -25 36 0 40 3 40 25 0 23 -4 25 -40 25
-36 0 -40 -2 -40 -25z m65 -5 c-3 -5 -15 -10 -25 -10 -10 0 -22 5 -25 10 -4 6
7 10 25 10 18 0 29 -4 25 -10z"/>
<path d="M3071 1614 c0 -16 3 -23 6 -16 2 6 21 13 41 13 34 2 35 2 7 6 -16 3
-36 9 -42 15 -10 8 -13 4 -12 -18z"/>
<path d="M3071 1553 c-1 -18 4 -23 24 -23 16 0 25 6 25 16 0 8 5 12 10 9 6 -4
8 -11 5 -16 -4 -5 -1 -9 4 -9 6 0 11 9 11 20 0 15 -7 20 -25 20 -16 0 -25 -6
-25 -15 0 -21 -18 -19 -23 3 -4 13 -5 11 -6 -5z"/>
<path d="M3070 1500 c0 -5 18 -10 41 -10 24 0 38 4 34 10 -3 6 -22 10 -41 10
-19 0 -34 -4 -34 -10z"/>
<path d="M3083 1463 c21 -5 23 -23 2 -23 -8 0 -15 -4 -15 -10 0 -5 18 -10 40
-10 22 0 40 5 40 10 0 6 -7 10 -15 10 -21 0 -19 18 3 23 9 3 -3 5 -28 5 -25 0
-37 -2 -27 -5z"/>
<path d="M847 1892 c-10 -10 -17 -26 -17 -36 0 -26 19 -56 35 -56 8 0 32 -15
53 -34 35 -32 39 -33 62 -20 l25 15 -28 -4 c-15 -2 -30 -1 -33 4 -3 5 14 12
36 15 l41 7 -34 36 c-18 20 -41 48 -50 64 -21 32 -65 37 -90 9z m58 2 c12 -5
45 -62 45 -79 0 -9 -53 -13 -73 -6 -32 13 -41 39 -22 67 16 25 23 28 50 18z
m61 -106 c-9 -5 -24 -7 -34 -5 -14 3 -12 6 8 14 29 12 50 5 26 -9z"/>
<path d="M1413 1883 c-9 -16 -32 -45 -52 -65 -32 -34 -33 -38 -14 -38 27 0 53
-10 53 -20 0 -4 -12 -5 -27 -3 l-28 4 25 -15 c23 -13 27 -12 62 20 21 19 45
34 53 34 8 0 19 9 25 19 37 70 -55 130 -97 64z m68 7 c12 -7 19 -21 19 -39 0
-37 -42 -57 -84 -41 -25 9 -26 11 -12 26 9 8 16 22 16 29 0 8 8 19 18 24 21
13 20 13 43 1z m-56 -101 c5 -6 3 -9 -7 -9 -24 0 -48 11 -48 22 0 10 39 1 55
-13z"/>
<path d="M2527 1842 c-37 -41 -6 -112 48 -112 32 0 65 33 65 65 0 55 -77 87
-113 47z m84 -13 c29 -29 16 -70 -28 -83 -15 -5 -28 -1 -42 13 -26 26 -26 46
-1 71 25 25 45 25 71 -1z"/>
<path d="M1025 1767 c-15 -31 -28 -44 -52 -52 -31 -9 -33 -12 -33 -55 1 -120
61 -267 147 -360 84 -91 83 -91 153 -25 97 93 169 258 170 388 0 41 -3 47 -21
47 -27 0 -79 52 -79 79 0 20 -5 21 -132 21 l-133 -1 -20 -42z m282 -4 c11 -25
32 -45 56 -57 38 -18 38 -19 32 -65 -12 -86 -35 -164 -68 -224 -34 -65 -131
-177 -152 -177 -22 0 -124 118 -154 179 -33 65 -57 143 -66 217 l-7 52 39 18
c24 12 45 32 56 57 l19 37 113 0 113 0 19 -37z"/>
<path d="M1053 1741 c-12 -21 -35 -44 -52 -51 -35 -14 -36 -20 -16 -114 18
-87 60 -176 113 -243 64 -81 72 -82 130 -22 79 81 131 194 146 320 5 44 4 46
-30 62 -20 10 -41 31 -51 52 l-17 35 -100 0 -101 0 -22 -39z m230 -11 c10 -16
31 -37 48 -47 30 -17 31 -20 25 -69 -13 -110 -67 -222 -145 -298 l-39 -38 -45
47 c-54 56 -101 141 -122 220 -23 91 -20 118 15 138 17 10 37 31 45 48 15 29
16 29 108 29 92 0 93 0 110 -30z"/>
<path d="M1780 1565 l0 -245 345 0 345 0 0 245 0 245 -345 0 -345 0 0 -245z
m301 210 c39 -14 48 -14 88 0 30 10 83 15 163 15 l118 0 0 -230 0 -230 -38 0
c-22 0 -65 9 -97 20 -83 28 -240 28 -296 0 -33 -17 -55 -20 -132 -18 l-92 3
-3 143 c-1 78 1 142 5 142 5 0 25 -11 45 -25 20 -14 39 -25 42 -25 4 0 6 14 6
30 0 24 7 35 35 51 31 18 35 26 35 61 0 30 -3 39 -14 35 -68 -26 -93 -29 -124
-13 -20 10 -32 24 -32 36 0 19 7 20 124 20 85 0 137 -5 167 -15z m64 6 c-18
-7 -55 -4 -55 5 0 2 17 4 38 3 28 0 32 -2 17 -8z m-316 -65 c21 -12 31 -12 64
0 53 19 57 18 57 -11 0 -19 -9 -29 -35 -42 -28 -13 -35 -22 -35 -46 l0 -29
-32 21 c-32 20 -48 41 -31 41 5 0 18 6 28 14 19 13 18 15 -18 32 -20 10 -37
21 -37 26 0 11 11 10 39 -6z m-5 -35 c3 -5 -1 -12 -10 -15 -22 -9 -24 -8 -24
9 0 16 25 21 34 6z m466 -341 c0 -6 -48 -10 -125 -10 -77 0 -125 4 -125 10 0
6 48 10 125 10 77 0 125 -4 125 -10z"/>
<path d="M1980 1700 c0 -22 4 -40 8 -40 10 0 72 63 72 73 0 4 -18 7 -40 7
l-40 0 0 -40z m50 22 c0 -10 -21 -32 -31 -32 -4 0 -5 9 -2 20 5 19 33 29 33
12z"/>
<path d="M2118 1704 c-38 -19 -68 -36 -68 -39 0 -2 17 -13 38 -24 36 -18 40
-19 55 -3 15 15 19 14 43 -9 14 -13 36 -44 49 -68 20 -41 23 -43 33 -25 27 47
29 49 46 34 25 -20 56 13 56 60 0 21 7 43 15 50 22 18 19 24 -20 43 -24 11
-60 17 -108 17 -62 -1 -81 -6 -139 -36z m233 10 c29 -14 30 -17 15 -33 -9 -10
-16 -34 -16 -54 0 -39 -15 -56 -33 -38 -18 18 -33 13 -47 -16 l-13 -28 -13 30
c-7 17 -28 45 -48 64 -34 33 -36 34 -55 17 -15 -14 -24 -15 -40 -6 -12 6 -21
13 -21 15 0 3 26 18 58 34 67 35 162 42 213 15z"/>
<path d="M2035 1600 c-21 -41 -20 -45 20 -69 27 -15 37 -30 46 -66 6 -25 16
-44 22 -42 6 2 26 41 44 88 33 83 33 84 13 103 -18 19 -20 19 -39 2 -18 -16
-22 -16 -50 -2 -39 21 -38 21 -56 -14z m65 -5 c22 -12 27 -11 43 3 13 12 20
13 29 4 9 -9 4 -29 -17 -84 l-29 -73 -12 30 c-7 17 -13 35 -14 41 0 6 -16 18
-35 27 -32 15 -34 18 -23 42 13 28 22 30 58 10z"/>
<path d="M1882 1537 c-18 -18 -32 -36 -32 -40 0 -3 14 -13 30 -22 27 -14 30
-20 30 -65 0 -27 4 -51 8 -54 5 -3 24 28 44 68 l37 73 -38 37 c-20 20 -39 36
-42 36 -3 0 -19 -15 -37 -33z m72 -16 l28 -29 -24 -43 -23 -44 -3 32 c-2 24
-10 34 -33 43 -35 15 -35 17 -7 47 27 29 29 29 62 -6z"/>
<path d="M2353 1483 c-36 -18 -48 -63 -16 -63 9 0 25 -8 36 -17 18 -17 20 -17
33 2 22 30 28 63 14 80 -15 19 -26 18 -67 -2z m56 -46 c-14 -31 -21 -33 -39
-12 -7 8 -19 15 -26 15 -24 0 -15 16 19 32 25 13 35 13 45 4 10 -10 11 -18 1
-39z"/>
<path d="M660 1773 c-52 -36 -68 -84 -46 -137 19 -45 52 -66 102 -66 52 0 90
28 105 79 28 94 -82 179 -161 124z m83 -2 c41 -16 67 -51 67 -91 0 -44 -20
-73 -59 -90 -90 -37 -169 68 -110 144 32 41 63 52 102 37z"/>
<path d="M3784 1644 c-43 -42 -15 -104 47 -104 37 0 59 24 59 65 0 24 -7 39
-22 49 -32 23 -55 20 -84 -10z m84 -6 c28 -28 2 -88 -38 -88 -40 0 -66 60 -38
88 7 7 24 12 38 12 14 0 31 -5 38 -12z"/>
<path d="M3260 1551 c0 -13 10 -20 31 -25 25 -5 30 -10 27 -28 -2 -17 -11 -24
-30 -26 -22 -3 -28 -9 -28 -28 0 -13 5 -24 12 -24 9 0 9 -3 0 -12 -19 -19 -14
-76 8 -98 19 -19 33 -20 240 -20 l220 0 0 25 c0 21 -5 25 -31 25 -26 0 -30 3
-27 23 2 16 11 23 31 25 21 3 27 9 27 28 0 22 -4 24 -47 24 -37 0 -44 3 -35
12 19 19 15 82 -6 101 -16 15 -46 17 -205 17 -176 0 -187 -1 -187 -19z m380
-11 c24 -24 26 -57 3 -82 -14 -16 -34 -18 -195 -18 -109 0 -178 4 -178 10 0 6
70 11 176 12 156 3 178 5 188 21 8 12 8 22 0 35 -10 15 -32 17 -188 20 -106 1
-176 6 -176 12 0 6 68 10 175 10 162 0 177 -2 195 -20z m-25 -24 c16 -12 17
-16 6 -30 -11 -13 -37 -16 -152 -16 -86 0 -139 4 -139 10 0 6 47 10 120 10 73
0 120 4 120 10 0 6 -47 10 -121 10 -77 0 -118 4 -114 10 10 16 257 13 280 -4z
m109 -106 c-5 -5 -100 -11 -219 -12 l-210 -3 -3 -24 c-7 -46 15 -51 235 -51
136 0 203 -3 203 -11 0 -7 -69 -9 -216 -7 -200 3 -217 4 -230 22 -19 26 -18
55 3 78 15 16 36 18 232 18 140 0 212 -3 205 -10z m-59 -30 c-4 -6 -70 -11
-158 -12 l-152 -2 150 -3 c220 -5 210 -23 -12 -23 -183 0 -208 5 -183 35 10
12 46 15 187 15 114 0 172 -3 168 -10z"/>
<path d="M737 1503 c-29 -7 -41 -51 -22 -79 17 -26 62 -33 83 -12 20 20 14 65
-10 82 -12 9 -25 15 -28 15 -3 -1 -13 -3 -23 -6z m53 -28 c26 -32 -13 -81 -47
-59 -35 22 -23 74 17 74 10 0 23 -7 30 -15z"/>
<path d="M907 1401 c-49 -46 -56 -58 -66 -112 -7 -34 -11 -63 -9 -65 2 -2 32
2 67 8 52 10 67 18 97 51 20 21 33 42 30 45 -4 3 -20 -10 -36 -30 -23 -28 -42
-39 -82 -47 -28 -6 -53 -10 -55 -8 -2 3 -1 24 3 48 5 36 17 54 61 97 70 69 61
80 -10 13z"/>
<path d="M1380 1445 c0 -4 24 -30 54 -58 44 -43 55 -60 60 -96 4 -24 5 -45 3
-47 -2 -2 -26 0 -53 5 -37 7 -57 18 -82 46 -19 20 -36 34 -40 31 -3 -4 11 -24
32 -44 30 -32 48 -41 98 -50 34 -6 63 -10 65 -8 2 1 -2 29 -8 62 -9 42 -21 68
-43 92 -34 37 -86 77 -86 67z"/>
<path d="M2688 1334 c-34 -18 -58 -62 -58 -105 0 -22 10 -41 34 -65 28 -28 42
-34 76 -34 34 0 48 6 76 34 27 27 34 42 34 73 0 85 -88 138 -162 97z m103 -14
c29 -16 51 -67 44 -100 -8 -38 -58 -80 -94 -80 -34 0 -79 33 -92 68 -12 32 5
87 34 107 25 17 80 20 108 5z"/>
<path d="M1680 1230 c-22 -19 -23 -21 -5 -40 10 -11 23 -20 29 -20 6 0 3 8 -7
17 -15 16 -15 18 0 35 23 26 11 32 -17 8z"/>
<path d="M2037 1232 c-23 -25 -21 -68 3 -92 26 -26 51 -25 84 1 29 23 33 54
10 87 -19 28 -74 30 -97 4z m82 -6 c16 -19 10 -66 -10 -79 -26 -16 -68 0 -75
29 -12 47 55 87 85 50z"/>
<path d="M1731 1193 c1 -20 3 -22 6 -9 4 16 11 18 48 13 65 -9 93 -25 88 -51
-4 -19 -3 -19 7 -3 10 16 13 15 46 -9 18 -15 34 -22 34 -16 0 26 -115 85 -187
96 -42 6 -43 6 -42 -21z"/>
<path d="M3034 1186 c-32 -32 -46 -65 -40 -91 5 -21 1 -23 -72 -35 -101 -17
-112 -23 -112 -63 0 -24 9 -42 33 -65 l33 -32 260 0 260 0 32 33 c22 23 32 43
32 65 0 39 -22 52 -88 52 -32 0 -54 5 -62 15 -7 8 -23 15 -37 15 -16 0 -22 4
-17 11 5 9 41 10 125 6 l119 -7 0 30 0 30 -124 0 c-69 0 -127 4 -130 9 -3 4
-24 11 -46 15 -26 4 -40 11 -40 21 0 25 -100 18 -126 -9z m116 4 c0 -5 -20
-10 -45 -10 -25 0 -45 5 -45 10 0 6 20 10 45 10 25 0 45 -4 45 -10z m86 -41
c23 -19 16 -49 -13 -60 -14 -5 -67 -8 -117 -7 -90 3 -91 3 -94 29 -6 50 21 63
122 55 49 -3 95 -11 102 -17z m244 -24 c0 -9 -9 -15 -25 -15 -16 0 -25 6 -25
15 0 9 9 15 25 15 16 0 25 -6 25 -15z m-60 -5 c0 -6 -33 -10 -80 -10 -47 0
-80 4 -80 10 0 6 33 10 80 10 47 0 80 -4 80 -10z m-129 -61 c8 -5 -54 -8 -156
-8 -103 1 -158 4 -140 9 41 11 279 10 296 -1z m-418 -41 c7 -21 -4 -38 -23
-38 -10 0 -20 6 -23 13 -7 20 4 37 23 37 10 0 20 -6 23 -12z m510 -7 c-5 -20
23 -55 38 -46 17 11 9 -8 -13 -32 -12 -13 -30 -23 -39 -23 -15 0 -17 6 -13 30
8 36 -9 60 -41 60 -32 0 -49 -24 -41 -60 5 -27 3 -30 -19 -30 -22 0 -24 3 -19
30 4 18 1 36 -6 45 -32 39 -98 -3 -80 -51 8 -21 7 -24 -15 -24 -22 0 -24 3
-19 30 8 38 -10 60 -47 60 -37 0 -57 -36 -40 -69 11 -19 9 -21 -21 -21 -25 0
-29 3 -20 12 15 15 15 51 0 66 -7 7 -25 12 -40 12 -36 0 -56 -36 -39 -69 10
-18 9 -21 -6 -21 -18 0 -63 38 -63 53 0 6 3 7 6 4 13 -13 44 14 44 38 l0 25
249 0 c238 0 249 -1 244 -19z m62 -6 c0 -23 -34 -33 -46 -14 -10 17 9 41 30
37 9 -2 16 -12 16 -23z m-465 -36 c9 -15 8 -24 -1 -35 -18 -22 -53 -13 -57 15
-6 40 39 56 58 20z m121 5 c17 -21 0 -49 -32 -49 -18 0 -25 6 -27 24 -6 38 34
55 59 25z m123 -6 c8 -14 7 -21 -6 -34 -30 -30 -75 9 -48 42 16 18 39 15 54
-8z m120 0 c8 -14 7 -21 -6 -34 -30 -30 -75 9 -48 42 16 18 39 15 54 -8z"/>
<path d="M2217 1174 c-11 -11 -8 -102 3 -109 16 -10 12 -22 -9 -28 -10 -2 -37
-32 -60 -66 l-42 -61 26 -49 c21 -42 25 -64 25 -134 0 -63 4 -88 15 -97 9 -7
15 -29 15 -55 0 -26 -6 -48 -15 -55 -26 -22 -16 -30 35 -30 l50 0 0 79 c0 44
5 83 10 86 6 4 10 -25 10 -79 l0 -86 50 0 c54 0 58 4 34 31 -18 20 -19 29 -10
155 3 50 13 110 22 135 12 35 44 175 44 195 0 2 7 4 15 4 7 0 19 8 24 18 9 15
25 2 121 -93 60 -60 110 -115 110 -122 0 -13 98 -68 107 -60 8 9 -47 107 -60
107 -7 0 -66 54 -131 119 -93 94 -118 124 -113 140 3 14 -1 22 -15 27 -11 3
-22 3 -26 0 -3 -3 -16 4 -29 16 -22 20 -24 21 -40 5 -16 -16 -15 -19 17 -52
30 -30 32 -37 20 -49 -36 -33 -119 -40 -104 -8 5 10 8 40 9 67 l0 50 -50 3
c-28 2 -54 0 -58 -4z m93 -54 c0 -57 -23 -80 -60 -60 -16 8 -20 21 -20 60 l0
50 40 0 40 0 0 -50z m115 20 c10 -11 15 -23 12 -27 -8 -7 -47 25 -47 39 0 14
16 9 35 -12z m38 -57 c-14 -42 -32 -68 -40 -59 -2 2 3 18 10 37 8 19 17 42 20
52 4 9 11 17 16 17 5 0 3 -21 -6 -47z m230 -226 c-7 -12 -213 193 -213 213 0
8 49 -34 109 -94 61 -61 107 -114 104 -119z m-378 171 c22 -10 26 -17 21 -41
-10 -51 -37 -96 -71 -117 -53 -33 -65 -28 -65 29 0 59 -11 70 -34 36 -16 -25
-16 -28 14 -86 33 -66 34 -69 20 -69 -6 0 -24 29 -42 64 l-31 64 33 51 c47 75
96 96 155 69z m88 -25 c-20 -142 -63 -256 -115 -310 -33 -34 -90 -59 -108 -48
-5 3 -10 33 -10 66 0 38 4 58 10 54 17 -11 52 5 46 21 -3 8 -9 20 -12 28 -4
10 8 21 39 34 51 22 86 72 94 132 4 31 11 41 32 49 14 5 27 10 28 10 1 1 -1
-16 -4 -36z m-226 -105 c-3 -8 -6 -5 -6 6 -1 11 2 17 5 13 3 -3 4 -12 1 -19z
m578 -78 c21 -40 19 -43 -15 -25 -18 9 -30 23 -30 35 0 30 27 24 45 -10z
m-416 -174 c-6 -37 -9 -83 -6 -102 5 -30 3 -34 -16 -34 -21 0 -22 4 -22 83 0
66 4 87 20 109 29 39 38 20 24 -56z m-97 -88 c3 -47 2 -48 -25 -48 -25 0 -27
2 -16 21 6 12 9 39 6 60 -4 30 -1 39 12 41 17 4 18 -1 23 -74z"/>
<path d="M944 1145 c-33 -50 20 -104 71 -71 27 18 34 63 13 84 -21 21 -66 14
-84 -13z m70 -1 c20 -19 20 -38 1 -54 -23 -19 -65 -4 -65 23 0 43 35 60 64 31z"/>
<path d="M1580 1162 c0 -12 19 -26 26 -19 2 2 -2 10 -11 17 -9 8 -15 8 -15 2z"/>
<path d="M1491 1094 c-35 -43 -61 -112 -61 -161 0 -28 3 -33 23 -32 18 1 19 2
3 6 -15 4 -17 11 -12 44 9 58 26 89 50 90 12 0 15 3 9 6 -19 7 -16 24 9 50 12
13 19 25 16 28 -3 4 -20 -11 -37 -31z"/>
<path d="M1174 1066 c-30 -13 -64 -67 -64 -101 0 -25 27 -72 52 -89 12 -9 42
-16 66 -16 62 0 102 40 102 104 0 84 -80 137 -156 102z m120 -37 c60 -71 1
-172 -90 -155 -70 14 -97 97 -48 155 21 26 33 31 69 31 36 0 48 -5 69 -31z"/>
<path d="M1835 1010 c-80 -81 -105 -86 -156 -33 -18 18 -37 33 -43 33 -6 0 7
-17 27 -38 24 -25 37 -47 37 -65 0 -29 29 -51 54 -41 17 6 32 42 22 52 -4 3
26 39 66 79 39 40 70 75 67 77 -3 3 -36 -26 -74 -64z m-77 -103 c4 -20 -25
-34 -40 -19 -15 15 -1 44 19 40 10 -2 19 -11 21 -21z"/>
<path d="M1975 1049 c-11 -17 -2 -18 19 -3 17 12 17 14 4 14 -9 0 -20 -5 -23
-11z"/>
<path d="M2017 962 c-24 -26 -21 -39 3 -17 19 17 21 17 40 0 11 -10 20 -14 20
-8 0 10 -32 43 -42 43 -3 0 -12 -8 -21 -18z"/>
<path d="M2013 903 c35 -9 8 -133 -29 -133 -14 0 -15 -3 -6 -12 8 -8 6 -18
-10 -40 -11 -16 -18 -31 -15 -34 6 -6 58 69 74 107 6 15 15 47 18 73 7 46 7
46 -21 45 -17 -1 -22 -3 -11 -6z"/>
<path d="M1390 872 c0 -5 9 -17 20 -27 19 -17 21 -17 40 0 11 10 20 23 20 28
0 6 -8 2 -19 -7 -17 -15 -20 -15 -34 -1 -17 17 -27 19 -27 7z"/>
<path d="M2945 765 c-32 -31 -32 -59 1 -91 41 -42 104 -15 104 45 0 32 -8 45
-37 60 -31 16 -41 14 -68 -14z m79 -11 c32 -31 8 -84 -38 -84 -29 0 -46 18
-46 50 0 14 5 31 12 38 17 17 54 15 72 -4z"/>
<path d="M1475 760 c-8 -13 5 -13 25 0 13 8 13 10 -2 10 -9 0 -20 -4 -23 -10z"/>
<path d="M2514 721 c-67 -41 -68 -141 -1 -181 80 -49 167 -2 167 90 0 91 -87
139 -166 91z m101 -6 c74 -36 73 -135 -2 -170 -42 -20 -76 -13 -109 22 -42 45
-30 118 24 147 35 19 47 19 87 1z"/>
<path d="M1520 693 c0 -30 99 -85 178 -98 41 -7 42 -6 41 22 -1 19 -3 22 -6 9
-4 -16 -11 -18 -49 -12 -58 8 -87 23 -80 42 5 12 1 14 -15 9 -14 -5 -28 0 -45
16 -13 12 -24 18 -24 12z"/>
<path d="M1870 662 c0 -12 19 -26 26 -19 2 2 -2 10 -11 17 -9 8 -15 8 -15 2z"/>
<path d="M1775 620 c17 -19 17 -21 0 -40 -10 -11 -14 -20 -8 -20 5 0 18 9 28
20 17 19 17 21 0 40 -10 11 -23 20 -28 20 -6 0 -2 -9 8 -20z"/>
<path d="M1986 594 c-34 -33 -8 -84 43 -84 34 0 51 17 51 50 0 14 -5 31 -12
38 -17 17 -64 15 -82 -4z m74 -14 c22 -40 -26 -80 -58 -48 -25 25 -6 68 30 68
9 0 22 -9 28 -20z"/>
</g>
</svg>
